# This file uses centimeters as units for non-parametric coordinates.

mtllib object4_small.mtl
g default
v 0.000000 0.592325 -0.430350
v 0.000000 0.226248 -0.696320
v -0.000000 -0.226248 -0.696320
v -0.000000 -0.592326 -0.430350
v -0.000000 -0.732155 0.000000
v -0.000000 -0.592325 0.430350
v -0.000000 -0.226248 0.696320
v 0.000000 0.226248 0.696320
v 0.000000 0.592325 0.430350
v 0.000000 0.732154 0.000000
v -0.079417 0.606990 -0.441004
v -0.079417 0.231850 -0.713560
v -0.079417 -0.231850 -0.713560
v -0.079417 -0.606990 -0.441004
v -0.079417 -0.750281 0.000000
v -0.079417 -0.606990 0.441004
v -0.079417 -0.231850 0.713560
v -0.079417 0.231850 0.713560
v -0.079417 0.606990 0.441004
v -0.079417 0.750281 0.000000
v -0.143105 0.648080 -0.470858
v -0.143105 0.247544 -0.761863
v -0.143105 -0.247544 -0.761863
v -0.143105 -0.648080 -0.470857
v -0.143105 -0.801070 0.000000
v -0.143105 -0.648080 0.470857
v -0.143105 -0.247544 0.761863
v -0.143105 0.247544 0.761863
v -0.143105 0.648080 0.470857
v -0.143105 0.801070 0.000000
v -0.178449 0.707456 -0.513997
v -0.178449 0.270224 -0.831664
v -0.178449 -0.270224 -0.831664
v -0.178449 -0.707456 -0.513997
v -0.178449 -0.874463 0.000000
v -0.178449 -0.707456 0.513997
v -0.178449 -0.270224 0.831664
v -0.178449 0.270224 0.831664
v -0.178449 0.707456 0.513997
v -0.178449 0.874463 0.000000
v -0.178449 0.773358 -0.561878
v -0.178449 0.295396 -0.909137
v -0.178449 -0.295397 -0.909137
v -0.178449 -0.773358 -0.561877
v -0.178449 -0.955923 0.000000
v -0.178449 -0.773358 0.561877
v -0.178449 -0.295396 0.909137
v -0.178449 0.295396 0.909137
v -0.178449 0.773358 0.561877
v -0.178449 0.955923 0.000000
v -0.143105 0.832734 -0.605017
v -0.143105 0.318076 -0.978938
v -0.143105 -0.318076 -0.978937
v -0.143105 -0.832734 -0.605017
v -0.143105 -1.029316 0.000000
v -0.143105 -0.832734 0.605017
v -0.143105 -0.318076 0.978937
v -0.143105 0.318076 0.978937
v -0.143105 0.832734 0.605017
v -0.143105 1.029316 0.000000
v -0.079417 0.873823 -0.634870
v -0.079417 0.333771 -1.027241
v -0.079417 -0.333771 -1.027241
v -0.079417 -0.873824 -0.634870
v -0.079417 -1.080105 0.000000
v -0.079417 -0.873823 0.634870
v -0.079417 -0.333771 1.027241
v -0.079417 0.333771 1.027241
v -0.079417 0.873823 0.634870
v -0.079417 1.080105 0.000000
v 0.000000 0.888488 -0.645525
v 0.000000 0.339372 -1.044481
v 0.000000 -0.339372 -1.044480
v 0.000000 -0.888488 -0.645524
v 0.000000 -1.098232 0.000000
v 0.000000 -0.888488 0.645524
v 0.000000 -0.339372 1.044480
v 0.000000 0.339372 1.044480
v 0.000000 0.888488 0.645524
v 0.000000 1.098232 0.000000
v 0.079417 0.873823 -0.634870
v 0.079417 0.333771 -1.027241
v 0.079417 -0.333771 -1.027241
v 0.079417 -0.873824 -0.634870
v 0.079417 -1.080105 0.000000
v 0.079417 -0.873823 0.634870
v 0.079417 -0.333771 1.027241
v 0.079417 0.333771 1.027241
v 0.079417 0.873823 0.634870
v 0.079417 1.080105 0.000000
v 0.143105 0.832734 -0.605017
v 0.143105 0.318076 -0.978938
v 0.143105 -0.318076 -0.978937
v 0.143105 -0.832734 -0.605017
v 0.143105 -1.029316 0.000000
v 0.143105 -0.832734 0.605017
v 0.143105 -0.318076 0.978937
v 0.143105 0.318076 0.978937
v 0.143105 0.832734 0.605017
v 0.143105 1.029316 0.000000
v 0.178449 0.773358 -0.561878
v 0.178449 0.295396 -0.909137
v 0.178449 -0.295397 -0.909137
v 0.178449 -0.773358 -0.561877
v 0.178449 -0.955923 0.000000
v 0.178449 -0.773358 0.561877
v 0.178449 -0.295396 0.909137
v 0.178449 0.295396 0.909137
v 0.178449 0.773358 0.561877
v 0.178449 0.955923 0.000000
v 0.178449 0.707456 -0.513997
v 0.178449 0.270224 -0.831664
v 0.178449 -0.270224 -0.831664
v 0.178449 -0.707456 -0.513996
v 0.178449 -0.874463 0.000000
v 0.178449 -0.707456 0.513997
v 0.178449 -0.270224 0.831664
v 0.178449 0.270224 0.831664
v 0.178449 0.707456 0.513996
v 0.178449 0.874463 0.000000
v 0.143105 0.648080 -0.470857
v 0.143105 0.247544 -0.761863
v 0.143105 -0.247544 -0.761863
v 0.143105 -0.648080 -0.470857
v 0.143105 -0.801070 0.000000
v 0.143105 -0.648080 0.470857
v 0.143105 -0.247544 0.761863
v 0.143105 0.247544 0.761863
v 0.143105 0.648080 0.470857
v 0.143105 0.801070 0.000000
v 0.079417 0.606990 -0.441004
v 0.079417 0.231850 -0.713560
v 0.079417 -0.231850 -0.713560
v 0.079417 -0.606990 -0.441004
v 0.079417 -0.750281 0.000000
v 0.079417 -0.606990 0.441004
v 0.079417 -0.231850 0.713560
v 0.079417 0.231850 0.713560
v 0.079417 0.606990 0.441004
v 0.079417 0.750281 0.000000
vt 0.000000 1.000000
vt 0.100000 1.000000
vt 0.200000 1.000000
vt 0.300000 1.000000
vt 0.400000 1.000000
vt 0.500000 1.000000
vt 0.600000 1.000000
vt 0.700000 1.000000
vt 0.800000 1.000000
vt 0.900000 1.000000
vt 1.000000 1.000000
vt 0.000000 0.928571
vt 0.100000 0.928571
vt 0.200000 0.928571
vt 0.300000 0.928571
vt 0.400000 0.928571
vt 0.500000 0.928571
vt 0.600000 0.928571
vt 0.700000 0.928571
vt 0.800000 0.928571
vt 0.900000 0.928571
vt 1.000000 0.928571
vt 0.000000 0.857143
vt 0.100000 0.857143
vt 0.200000 0.857143
vt 0.300000 0.857143
vt 0.400000 0.857143
vt 0.500000 0.857143
vt 0.600000 0.857143
vt 0.700000 0.857143
vt 0.800000 0.857143
vt 0.900000 0.857143
vt 1.000000 0.857143
vt 0.000000 0.785714
vt 0.100000 0.785714
vt 0.200000 0.785714
vt 0.300000 0.785714
vt 0.400000 0.785714
vt 0.500000 0.785714
vt 0.600000 0.785714
vt 0.700000 0.785714
vt 0.800000 0.785714
vt 0.900000 0.785714
vt 1.000000 0.785714
vt 0.000000 0.714286
vt 0.100000 0.714286
vt 0.200000 0.714286
vt 0.300000 0.714286
vt 0.400000 0.714286
vt 0.500000 0.714286
vt 0.600000 0.714286
vt 0.700000 0.714286
vt 0.800000 0.714286
vt 0.900000 0.714286
vt 1.000000 0.714286
vt 0.000000 0.642857
vt 0.100000 0.642857
vt 0.200000 0.642857
vt 0.300000 0.642857
vt 0.400000 0.642857
vt 0.500000 0.642857
vt 0.600000 0.642857
vt 0.700000 0.642857
vt 0.800000 0.642857
vt 0.900000 0.642857
vt 1.000000 0.642857
vt 0.000000 0.571428
vt 0.100000 0.571428
vt 0.200000 0.571428
vt 0.300000 0.571428
vt 0.400000 0.571428
vt 0.500000 0.571428
vt 0.600000 0.571428
vt 0.700000 0.571428
vt 0.800000 0.571428
vt 0.900000 0.571428
vt 1.000000 0.571428
vt 0.000000 0.500000
vt 0.100000 0.500000
vt 0.200000 0.500000
vt 0.300000 0.500000
vt 0.400000 0.500000
vt 0.500000 0.500000
vt 0.600000 0.500000
vt 0.700000 0.500000
vt 0.800000 0.500000
vt 0.900000 0.500000
vt 1.000000 0.500000
vt 0.000000 0.428571
vt 0.100000 0.428571
vt 0.200000 0.428571
vt 0.300000 0.428571
vt 0.400000 0.428571
vt 0.500000 0.428571
vt 0.600000 0.428571
vt 0.700000 0.428571
vt 0.800000 0.428571
vt 0.900000 0.428571
vt 1.000000 0.428571
vt 0.000000 0.357143
vt 0.100000 0.357143
vt 0.200000 0.357143
vt 0.300000 0.357143
vt 0.400000 0.357143
vt 0.500000 0.357143
vt 0.600000 0.357143
vt 0.700000 0.357143
vt 0.800000 0.357143
vt 0.900000 0.357143
vt 1.000000 0.357143
vt 0.000000 0.285714
vt 0.100000 0.285714
vt 0.200000 0.285714
vt 0.300000 0.285714
vt 0.400000 0.285714
vt 0.500000 0.285714
vt 0.600000 0.285714
vt 0.700000 0.285714
vt 0.800000 0.285714
vt 0.900000 0.285714
vt 1.000000 0.285714
vt 0.000000 0.214286
vt 0.100000 0.214286
vt 0.200000 0.214286
vt 0.300000 0.214286
vt 0.400000 0.214286
vt 0.500000 0.214286
vt 0.600000 0.214286
vt 0.700000 0.214286
vt 0.800000 0.214286
vt 0.900000 0.214286
vt 1.000000 0.214286
vt 0.000000 0.142857
vt 0.100000 0.142857
vt 0.200000 0.142857
vt 0.300000 0.142857
vt 0.400000 0.142857
vt 0.500000 0.142857
vt 0.600000 0.142857
vt 0.700000 0.142857
vt 0.800000 0.142857
vt 0.900000 0.142857
vt 1.000000 0.142857
vt 0.000000 0.071428
vt 0.100000 0.071428
vt 0.200000 0.071428
vt 0.300000 0.071428
vt 0.400000 0.071428
vt 0.500000 0.071428
vt 0.600000 0.071428
vt 0.700000 0.071428
vt 0.800000 0.071428
vt 0.900000 0.071428
vt 1.000000 0.071428
vt 0.000000 -0.000000
vt 0.100000 -0.000000
vt 0.200000 -0.000000
vt 0.300000 -0.000000
vt 0.400000 -0.000000
vt 0.500000 -0.000000
vt 0.600000 -0.000000
vt 0.700000 -0.000000
vt 0.800000 -0.000000
vt 0.900000 -0.000000
vt 1.000000 -0.000000
vn 0.000000 -0.587785 0.809017
vn 0.000000 -0.587785 0.809017
vn -0.437002 -0.528690 0.727679
vn -0.437002 -0.528690 0.727679
vn 0.000000 0.000000 1.000000
vn -0.000000 0.000000 1.000000
vn -0.437002 0.000000 0.899460
vn -0.437002 0.000000 0.899460
vn 0.000000 0.587785 0.809017
vn 0.000000 0.587785 0.809017
vn -0.437002 0.528690 0.727679
vn -0.437002 0.528690 0.727679
vn 0.000000 0.951057 0.309017
vn 0.000000 0.951057 0.309017
vn -0.437002 0.855438 0.277948
vn -0.437002 0.855438 0.277948
vn -0.000000 0.951056 -0.309017
vn 0.000000 0.951056 -0.309017
vn -0.437002 0.855438 -0.277949
vn -0.437002 0.855438 -0.277949
vn 0.000000 0.587785 -0.809017
vn 0.000000 0.587785 -0.809017
vn -0.437002 0.528690 -0.727679
vn -0.437002 0.528690 -0.727679
vn 0.000000 -0.000000 -1.000000
vn 0.000000 -0.000000 -1.000000
vn -0.437002 -0.000000 -0.899460
vn -0.437002 -0.000000 -0.899460
vn -0.000000 -0.587785 -0.809017
vn -0.000000 -0.587785 -0.809017
vn -0.437002 -0.528690 -0.727679
vn -0.437002 -0.528690 -0.727679
vn 0.000000 -0.951057 -0.309017
vn -0.000000 -0.951057 -0.309017
vn -0.437002 -0.855438 -0.277949
vn -0.437002 -0.855438 -0.277949
vn -0.000000 -0.951057 0.309017
vn -0.000000 -0.951057 0.309017
vn -0.437002 -0.855438 0.277948
vn -0.437002 -0.855438 0.277948
vn -0.792976 -0.358110 0.492896
vn -0.792976 -0.358110 0.492896
vn -0.792976 0.000000 0.609253
vn -0.792976 0.000000 0.609253
vn -0.792976 0.358110 0.492896
vn -0.792976 0.358110 0.492896
vn -0.792976 0.579434 0.188270
vn -0.792976 0.579434 0.188270
vn -0.792976 0.579434 -0.188270
vn -0.792976 0.579434 -0.188270
vn -0.792976 0.358110 -0.492896
vn -0.792976 0.358110 -0.492896
vn -0.792976 -0.000000 -0.609253
vn -0.792976 -0.000000 -0.609253
vn -0.792976 -0.358110 -0.492896
vn -0.792976 -0.358110 -0.492896
vn -0.792976 -0.579434 -0.188270
vn -0.792976 -0.579434 -0.188270
vn -0.792976 -0.579434 0.188270
vn -0.792976 -0.579434 0.188269
vn -0.983740 -0.105565 0.145298
vn -0.983740 -0.105565 0.145298
vn -0.983740 0.000000 0.179597
vn -0.983740 0.000000 0.179597
vn -0.983740 0.105565 0.145297
vn -0.983740 0.105565 0.145297
vn -0.983740 0.170807 0.055499
vn -0.983740 0.170807 0.055499
vn -0.983740 0.170807 -0.055499
vn -0.983740 0.170807 -0.055499
vn -0.983740 0.105565 -0.145298
vn -0.983740 0.105565 -0.145298
vn -0.983740 -0.000000 -0.179597
vn -0.983740 -0.000000 -0.179597
vn -0.983740 -0.105565 -0.145298
vn -0.983740 -0.105565 -0.145297
vn -0.983740 -0.170807 -0.055499
vn -0.983740 -0.170807 -0.055499
vn -0.983740 -0.170807 0.055499
vn -0.983740 -0.170807 0.055499
vn -0.958113 0.168335 -0.231694
vn -0.958113 0.168335 -0.231694
vn -0.958113 -0.000000 -0.286389
vn -0.958113 -0.000000 -0.286389
vn -0.958113 -0.168336 -0.231694
vn -0.958113 -0.168336 -0.231694
vn -0.958113 -0.272373 -0.088499
vn -0.958113 -0.272373 -0.088499
vn -0.958113 -0.272373 0.088499
vn -0.958113 -0.272373 0.088499
vn -0.958113 -0.168336 0.231694
vn -0.958113 -0.168335 0.231694
vn -0.958113 0.000000 0.286390
vn -0.958113 0.000000 0.286389
vn -0.958113 0.168336 0.231694
vn -0.958113 0.168336 0.231694
vn -0.958113 0.272373 0.088499
vn -0.958113 0.272373 0.088499
vn -0.958113 0.272373 -0.088499
vn -0.958113 0.272373 -0.088499
vn -0.738198 0.396511 -0.545750
vn -0.738198 0.396511 -0.545750
vn -0.738198 -0.000000 -0.674585
vn -0.738198 -0.000000 -0.674585
vn -0.738198 -0.396511 -0.545750
vn -0.738198 -0.396511 -0.545750
vn -0.738198 -0.641568 -0.208458
vn -0.738198 -0.641568 -0.208458
vn -0.738197 -0.641568 0.208458
vn -0.738197 -0.641568 0.208458
vn -0.738198 -0.396511 0.545750
vn -0.738198 -0.396511 0.545750
vn -0.738198 0.000000 0.674585
vn -0.738198 0.000000 0.674585
vn -0.738198 0.396511 0.545750
vn -0.738198 0.396511 0.545750
vn -0.738198 0.641568 0.208458
vn -0.738198 0.641568 0.208458
vn -0.738198 0.641568 -0.208458
vn -0.738198 0.641568 -0.208458
vn -0.395621 0.539830 -0.743012
vn -0.395621 0.539830 -0.743012
vn -0.395621 -0.000000 -0.918414
vn -0.395621 -0.000000 -0.918414
vn -0.395621 -0.539830 -0.743012
vn -0.395621 -0.539830 -0.743012
vn -0.395621 -0.873463 -0.283805
vn -0.395621 -0.873464 -0.283805
vn -0.395621 -0.873463 0.283805
vn -0.395621 -0.873463 0.283805
vn -0.395621 -0.539830 0.743013
vn -0.395621 -0.539830 0.743013
vn -0.395621 0.000000 0.918414
vn -0.395621 0.000000 0.918414
vn -0.395620 0.539830 0.743013
vn -0.395620 0.539830 0.743013
vn -0.395621 0.873464 0.283806
vn -0.395621 0.873464 0.283805
vn -0.395620 0.873464 -0.283805
vn -0.395620 0.873464 -0.283805
vn 0.000000 0.587785 -0.809017
vn 0.000000 0.587785 -0.809017
vn -0.000000 -0.000000 -1.000000
vn 0.000000 -0.000000 -1.000000
vn -0.000000 -0.587785 -0.809017
vn -0.000000 -0.587785 -0.809017
vn -0.000000 -0.951057 -0.309017
vn -0.000000 -0.951057 -0.309017
vn 0.000000 -0.951057 0.309017
vn 0.000000 -0.951057 0.309017
vn -0.000000 -0.587785 0.809017
vn -0.000000 -0.587785 0.809017
vn 0.000000 0.000000 1.000000
vn 0.000000 0.000000 1.000000
vn 0.000000 0.587785 0.809017
vn 0.000000 0.587785 0.809017
vn -0.000000 0.951057 0.309017
vn -0.000000 0.951057 0.309017
vn 0.000000 0.951057 -0.309017
vn 0.000000 0.951057 -0.309017
vn 0.395621 0.539830 -0.743012
vn 0.395621 0.539830 -0.743012
vn 0.395621 -0.000000 -0.918414
vn 0.395621 -0.000000 -0.918414
vn 0.395621 -0.539830 -0.743012
vn 0.395621 -0.539830 -0.743012
vn 0.395621 -0.873463 -0.283805
vn 0.395621 -0.873463 -0.283805
vn 0.395621 -0.873463 0.283805
vn 0.395621 -0.873463 0.283805
vn 0.395621 -0.539830 0.743012
vn 0.395621 -0.539830 0.743012
vn 0.395621 0.000000 0.918414
vn 0.395621 0.000000 0.918414
vn 0.395621 0.539830 0.743013
vn 0.395621 0.539830 0.743013
vn 0.395621 0.873464 0.283805
vn 0.395621 0.873464 0.283805
vn 0.395620 0.873464 -0.283805
vn 0.395620 0.873464 -0.283805
vn 0.738198 0.396511 -0.545750
vn 0.738198 0.396511 -0.545750
vn 0.738198 -0.000000 -0.674584
vn 0.738198 -0.000000 -0.674584
vn 0.738198 -0.396511 -0.545750
vn 0.738198 -0.396511 -0.545750
vn 0.738198 -0.641568 -0.208458
vn 0.738198 -0.641568 -0.208458
vn 0.738198 -0.641568 0.208458
vn 0.738198 -0.641568 0.208458
vn 0.738198 -0.396511 0.545750
vn 0.738198 -0.396511 0.545750
vn 0.738198 0.000000 0.674585
vn 0.738198 0.000000 0.674585
vn 0.738198 0.396511 0.545750
vn 0.738198 0.396511 0.545750
vn 0.738198 0.641568 0.208458
vn 0.738198 0.641568 0.208458
vn 0.738198 0.641568 -0.208458
vn 0.738198 0.641568 -0.208458
vn 0.958113 0.168335 -0.231694
vn 0.958113 0.168335 -0.231694
vn 0.958113 0.000000 -0.286389
vn 0.958113 0.000000 -0.286389
vn 0.958113 -0.168335 -0.231694
vn 0.958113 -0.168335 -0.231694
vn 0.958113 -0.272372 -0.088499
vn 0.958113 -0.272372 -0.088499
vn 0.958113 -0.272372 0.088499
vn 0.958113 -0.272372 0.088499
vn 0.958113 -0.168335 0.231694
vn 0.958113 -0.168335 0.231694
vn 0.958113 0.000000 0.286389
vn 0.958113 0.000000 0.286389
vn 0.958113 0.168335 0.231694
vn 0.958113 0.168335 0.231694
vn 0.958113 0.272372 0.088499
vn 0.958113 0.272372 0.088499
vn 0.958113 0.272372 -0.088499
vn 0.958113 0.272372 -0.088499
vn 0.983740 -0.105565 0.145298
vn 0.983740 -0.105565 0.145298
vn 0.983740 0.000000 0.179598
vn 0.983740 0.000000 0.179598
vn 0.983740 0.105565 0.145298
vn 0.983740 0.105565 0.145298
vn 0.983740 0.170808 0.055499
vn 0.983740 0.170808 0.055499
vn 0.983740 0.170808 -0.055499
vn 0.983740 0.170808 -0.055499
vn 0.983740 0.105565 -0.145298
vn 0.983740 0.105565 -0.145298
vn 0.983740 -0.000000 -0.179598
vn 0.983740 -0.000000 -0.179598
vn 0.983740 -0.105565 -0.145298
vn 0.983740 -0.105565 -0.145298
vn 0.983740 -0.170808 -0.055499
vn 0.983740 -0.170808 -0.055499
vn 0.983740 -0.170808 0.055499
vn 0.983740 -0.170808 0.055499
vn 0.792976 -0.358110 0.492896
vn 0.792976 -0.358110 0.492896
vn 0.792976 0.000000 0.609253
vn 0.792976 0.000000 0.609253
vn 0.792976 0.358110 0.492896
vn 0.792976 0.358110 0.492896
vn 0.792976 0.579434 0.188270
vn 0.792976 0.579434 0.188270
vn 0.792976 0.579434 -0.188270
vn 0.792976 0.579434 -0.188270
vn 0.792976 0.358110 -0.492896
vn 0.792976 0.358110 -0.492896
vn 0.792976 -0.000000 -0.609253
vn 0.792976 -0.000000 -0.609253
vn 0.792976 -0.358110 -0.492896
vn 0.792976 -0.358110 -0.492896
vn 0.792976 -0.579434 -0.188270
vn 0.792976 -0.579434 -0.188270
vn 0.792976 -0.579434 0.188269
vn 0.792976 -0.579434 0.188269
vn 0.437002 -0.528690 0.727679
vn 0.437002 -0.528690 0.727679
vn 0.437002 0.000000 0.899460
vn 0.437002 0.000000 0.899460
vn 0.437002 0.528690 0.727679
vn 0.437002 0.528690 0.727679
vn 0.437002 0.855438 0.277949
vn 0.437002 0.855438 0.277949
vn 0.437002 0.855438 -0.277949
vn 0.437002 0.855438 -0.277949
vn 0.437002 0.528690 -0.727679
vn 0.437002 0.528690 -0.727679
vn 0.437002 -0.000000 -0.899461
vn 0.437002 -0.000000 -0.899461
vn 0.437002 -0.528690 -0.727679
vn 0.437002 -0.528690 -0.727679
vn 0.437002 -0.855438 -0.277949
vn 0.437002 -0.855438 -0.277949
vn 0.437002 -0.855438 0.277948
vn 0.437002 -0.855438 0.277948
s 1
g pTorus1
usemtl initialShadingGroup
f 2/2/1 1/1/2 11/12/3 12/13/4
s 2
f 3/3/5 2/2/6 12/13/7 13/14/8
s 3
f 4/4/9 3/3/10 13/14/11 14/15/12
s 4
f 5/5/13 4/4/14 14/15/15 15/16/16
s 5
f 6/6/17 5/5/18 15/16/19 16/17/20
s 6
f 7/7/21 6/6/22 16/17/23 17/18/24
s 7
f 8/8/25 7/7/26 17/18/27 18/19/28
s 8
f 9/9/29 8/8/30 18/19/31 19/20/32
s 9
f 10/10/33 9/9/34 19/20/35 20/21/36
s 10
f 1/11/37 10/10/38 20/21/39 11/22/40
s 1
f 12/13/4 11/12/3 21/23/41 22/24/42
s 2
f 13/14/8 12/13/7 22/24/43 23/25/44
s 3
f 14/15/12 13/14/11 23/25/45 24/26/46
s 4
f 15/16/16 14/15/15 24/26/47 25/27/48
s 5
f 16/17/20 15/16/19 25/27/49 26/28/50
s 6
f 17/18/24 16/17/23 26/28/51 27/29/52
s 7
f 18/19/28 17/18/27 27/29/53 28/30/54
s 8
f 19/20/32 18/19/31 28/30/55 29/31/56
s 9
f 20/21/36 19/20/35 29/31/57 30/32/58
s 10
f 11/22/40 20/21/39 30/32/59 21/33/60
s 1
f 22/24/42 21/23/41 31/34/61 32/35/62
s 2
f 23/25/44 22/24/43 32/35/63 33/36/64
s 3
f 24/26/46 23/25/45 33/36/65 34/37/66
s 4
f 25/27/48 24/26/47 34/37/67 35/38/68
s 5
f 26/28/50 25/27/49 35/38/69 36/39/70
s 6
f 27/29/52 26/28/51 36/39/71 37/40/72
s 7
f 28/30/54 27/29/53 37/40/73 38/41/74
s 8
f 29/31/56 28/30/55 38/41/75 39/42/76
s 9
f 30/32/58 29/31/57 39/42/77 40/43/78
s 10
f 21/33/60 30/32/59 40/43/79 31/44/80
s 1
f 32/35/62 31/34/61 41/45/81 42/46/82
s 2
f 33/36/64 32/35/63 42/46/83 43/47/84
s 3
f 34/37/66 33/36/65 43/47/85 44/48/86
s 4
f 35/38/68 34/37/67 44/48/87 45/49/88
s 5
f 36/39/70 35/38/69 45/49/89 46/50/90
s 6
f 37/40/72 36/39/71 46/50/91 47/51/92
s 7
f 38/41/74 37/40/73 47/51/93 48/52/94
s 8
f 39/42/76 38/41/75 48/52/95 49/53/96
s 9
f 40/43/78 39/42/77 49/53/97 50/54/98
s 10
f 31/44/80 40/43/79 50/54/99 41/55/100
s 1
f 42/46/82 41/45/81 51/56/101 52/57/102
s 2
f 43/47/84 42/46/83 52/57/103 53/58/104
s 3
f 44/48/86 43/47/85 53/58/105 54/59/106
s 4
f 45/49/88 44/48/87 54/59/107 55/60/108
s 5
f 46/50/90 45/49/89 55/60/109 56/61/110
s 6
f 47/51/92 46/50/91 56/61/111 57/62/112
s 7
f 48/52/94 47/51/93 57/62/113 58/63/114
s 8
f 49/53/96 48/52/95 58/63/115 59/64/116
s 9
f 50/54/98 49/53/97 59/64/117 60/65/118
s 10
f 41/55/100 50/54/99 60/65/119 51/66/120
s 1
f 52/57/102 51/56/101 61/67/121 62/68/122
s 2
f 53/58/104 52/57/103 62/68/123 63/69/124
s 3
f 54/59/106 53/58/105 63/69/125 64/70/126
s 4
f 55/60/108 54/59/107 64/70/127 65/71/128
s 5
f 56/61/110 55/60/109 65/71/129 66/72/130
s 6
f 57/62/112 56/61/111 66/72/131 67/73/132
s 7
f 58/63/114 57/62/113 67/73/133 68/74/134
s 8
f 59/64/116 58/63/115 68/74/135 69/75/136
s 9
f 60/65/118 59/64/117 69/75/137 70/76/138
s 10
f 51/66/120 60/65/119 70/76/139 61/77/140
s 1
f 62/68/122 61/67/121 71/78/141 72/79/142
s 2
f 63/69/124 62/68/123 72/79/143 73/80/144
s 3
f 64/70/126 63/69/125 73/80/145 74/81/146
s 4
f 65/71/128 64/70/127 74/81/147 75/82/148
s 5
f 66/72/130 65/71/129 75/82/149 76/83/150
s 6
f 67/73/132 66/72/131 76/83/151 77/84/152
s 7
f 68/74/134 67/73/133 77/84/153 78/85/154
s 8
f 69/75/136 68/74/135 78/85/155 79/86/156
s 9
f 70/76/138 69/75/137 79/86/157 80/87/158
s 10
f 61/77/140 70/76/139 80/87/159 71/88/160
s 1
f 72/79/142 71/78/141 81/89/161 82/90/162
s 2
f 73/80/144 72/79/143 82/90/163 83/91/164
s 3
f 74/81/146 73/80/145 83/91/165 84/92/166
s 4
f 75/82/148 74/81/147 84/92/167 85/93/168
s 5
f 76/83/150 75/82/149 85/93/169 86/94/170
s 6
f 77/84/152 76/83/151 86/94/171 87/95/172
s 7
f 78/85/154 77/84/153 87/95/173 88/96/174
s 8
f 79/86/156 78/85/155 88/96/175 89/97/176
s 9
f 80/87/158 79/86/157 89/97/177 90/98/178
s 10
f 71/88/160 80/87/159 90/98/179 81/99/180
s 1
f 82/90/162 81/89/161 91/100/181 92/101/182
s 2
f 83/91/164 82/90/163 92/101/183 93/102/184
s 3
f 84/92/166 83/91/165 93/102/185 94/103/186
s 4
f 85/93/168 84/92/167 94/103/187 95/104/188
s 5
f 86/94/170 85/93/169 95/104/189 96/105/190
s 6
f 87/95/172 86/94/171 96/105/191 97/106/192
s 7
f 88/96/174 87/95/173 97/106/193 98/107/194
s 8
f 89/97/176 88/96/175 98/107/195 99/108/196
s 9
f 90/98/178 89/97/177 99/108/197 100/109/198
s 10
f 81/99/180 90/98/179 100/109/199 91/110/200
s 1
f 92/101/182 91/100/181 101/111/201 102/112/202
s 2
f 93/102/184 92/101/183 102/112/203 103/113/204
s 3
f 94/103/186 93/102/185 103/113/205 104/114/206
s 4
f 95/104/188 94/103/187 104/114/207 105/115/208
s 5
f 96/105/190 95/104/189 105/115/209 106/116/210
s 6
f 97/106/192 96/105/191 106/116/211 107/117/212
s 7
f 98/107/194 97/106/193 107/117/213 108/118/214
s 8
f 99/108/196 98/107/195 108/118/215 109/119/216
s 9
f 100/109/198 99/108/197 109/119/217 110/120/218
s 10
f 91/110/200 100/109/199 110/120/219 101/121/220
s 1
f 102/112/202 101/111/201 111/122/221 112/123/222
s 2
f 103/113/204 102/112/203 112/123/223 113/124/224
s 3
f 104/114/206 103/113/205 113/124/225 114/125/226
s 4
f 105/115/208 104/114/207 114/125/227 115/126/228
s 5
f 106/116/210 105/115/209 115/126/229 116/127/230
s 6
f 107/117/212 106/116/211 116/127/231 117/128/232
s 7
f 108/118/214 107/117/213 117/128/233 118/129/234
s 8
f 109/119/216 108/118/215 118/129/235 119/130/236
s 9
f 110/120/218 109/119/217 119/130/237 120/131/238
s 10
f 101/121/220 110/120/219 120/131/239 111/132/240
s 1
f 112/123/222 111/122/221 121/133/241 122/134/242
s 2
f 113/124/224 112/123/223 122/134/243 123/135/244
s 3
f 114/125/226 113/124/225 123/135/245 124/136/246
s 4
f 115/126/228 114/125/227 124/136/247 125/137/248
s 5
f 116/127/230 115/126/229 125/137/249 126/138/250
s 6
f 117/128/232 116/127/231 126/138/251 127/139/252
s 7
f 118/129/234 117/128/233 127/139/253 128/140/254
s 8
f 119/130/236 118/129/235 128/140/255 129/141/256
s 9
f 120/131/238 119/130/237 129/141/257 130/142/258
s 10
f 111/132/240 120/131/239 130/142/259 121/143/260
s 1
f 122/134/242 121/133/241 131/144/261 132/145/262
s 2
f 123/135/244 122/134/243 132/145/263 133/146/264
s 3
f 124/136/246 123/135/245 133/146/265 134/147/266
s 4
f 125/137/248 124/136/247 134/147/267 135/148/268
s 5
f 126/138/250 125/137/249 135/148/269 136/149/270
s 6
f 127/139/252 126/138/251 136/149/271 137/150/272
s 7
f 128/140/254 127/139/253 137/150/273 138/151/274
s 8
f 129/141/256 128/140/255 138/151/275 139/152/276
s 9
f 130/142/258 129/141/257 139/152/277 140/153/278
s 10
f 121/143/260 130/142/259 140/153/279 131/154/280
s 1
f 132/145/262 131/144/261 1/155/2 2/156/1
s 2
f 133/146/264 132/145/263 2/156/6 3/157/5
s 3
f 134/147/266 133/146/265 3/157/10 4/158/9
s 4
f 135/148/268 134/147/267 4/158/14 5/159/13
s 5
f 136/149/270 135/148/269 5/159/18 6/160/17
s 6
f 137/150/272 136/149/271 6/160/22 7/161/21
s 7
f 138/151/274 137/150/273 7/161/26 8/162/25
s 8
f 139/152/276 138/151/275 8/162/30 9/163/29
s 9
f 140/153/278 139/152/277 9/163/34 10/164/33
s 10
f 131/154/280 140/153/279 10/164/38 1/165/37
